<svg data-v-423bf9ae="" xmlns="http://www.w3.org/2000/svg" viewBox="0 0 905.2356945009924 163" class="iconAbove"><!----><!----><!----><g data-v-423bf9ae="" id="e45df57d-b157-4e32-ac84-cb7962e51ff6" fill="white" transform="matrix(4.886562453446652,0,0,4.886562453446652,-4.788830628613539,85.64572052240626)"><path d="M8.60 9.80C9.35 9.13 9.73 8.23 9.73 7.34C9.73 6.38 9.30 5.46 8.53 4.80C7.73 4.13 6.64 3.78 5.36 3.78L1.26 3.78C1.11 3.78 0.98 3.91 0.98 4.07L0.98 5.21L3.32 8.71L0.98 8.71L0.98 15.53C0.98 15.68 1.11 15.82 1.26 15.82L5.36 15.82C8.23 15.82 9.73 14.03 9.73 12.26C9.73 11.33 9.32 10.44 8.60 9.80ZM4.12 5.96L5.36 5.96C6.86 5.96 7.55 6.68 7.55 7.34C7.55 7.91 7.03 8.51 5.92 8.67ZM3.16 13.62L3.16 10.89L5.36 10.89C6.86 10.89 7.55 11.61 7.55 12.26C7.55 12.92 6.86 13.62 5.36 13.62ZM18.98 11.16C18.98 11.00 18.86 10.89 18.70 10.89L17.78 10.89L16.07 4.05L16.06 3.98C16.02 3.88 15.92 3.81 15.81 3.81L13.97 3.81C13.86 3.81 13.76 3.88 13.72 3.98L13.71 4.06L10.86 15.41C10.86 15.43 10.86 15.44 10.85 15.44L10.85 15.50C10.85 15.67 10.98 15.79 11.12 15.79L12.81 15.79C12.92 15.79 13.03 15.71 13.06 15.60C13.06 15.58 13.08 15.57 13.08 15.57L13.69 13.06L16.09 13.06L16.70 15.55L16.72 15.60C16.76 15.71 16.86 15.79 16.97 15.79L18.66 15.79C18.82 15.79 18.93 15.67 18.93 15.50L18.93 15.47L18.91 15.40L18.33 13.06L18.70 13.06C18.86 13.06 18.98 12.95 18.98 12.80ZM14.24 10.89L14.90 8.30L15.54 10.89ZM28.59 12.28C28.59 12.38 28.57 13.22 28.04 14.07C27.55 14.88 26.54 15.83 24.49 15.83C22.86 15.83 21.59 15.15 20.90 13.93C20.58 13.34 20.45 12.77 20.41 12.40C20.41 12.38 20.40 12.35 20.40 12.32C20.40 12.18 20.51 12.05 20.65 12.04L22.37 12.04C22.48 12.05 22.57 12.12 22.60 12.24L22.60 12.25C22.60 12.26 22.61 12.28 22.61 12.29C22.64 12.46 22.71 12.70 22.85 12.91C23.14 13.40 23.69 13.65 24.49 13.65C25.34 13.65 25.89 13.41 26.18 12.94C26.38 12.61 26.40 12.26 26.40 12.26C26.40 11.87 26.31 11.41 25.58 11.12C25.05 10.89 24.49 10.88 24.49 10.88C24.39 10.88 23.49 10.86 22.57 10.50C21.15 9.93 20.38 8.81 20.38 7.34C20.38 7.20 20.41 5.89 21.43 4.87C22.16 4.13 23.20 3.75 24.49 3.75C25.31 3.75 26.50 3.93 27.41 4.86C28.29 5.75 28.52 6.89 28.57 7.45L28.57 7.48C28.57 7.64 28.46 7.77 28.31 7.77L26.61 7.77C26.50 7.76 26.40 7.66 26.38 7.55L26.38 7.50C26.33 7.31 26.26 7.03 26.12 6.75C25.93 6.40 25.55 5.94 24.49 5.94C23.80 5.94 23.30 6.09 22.97 6.41C22.60 6.79 22.57 7.34 22.57 7.34C22.57 7.73 22.67 8.18 23.39 8.47C23.93 8.68 24.49 8.69 24.49 8.69C24.58 8.69 25.48 8.71 26.40 9.09C27.82 9.67 28.59 10.81 28.59 12.28ZM38.19 15.53C38.19 15.68 38.08 15.81 37.93 15.81L35.92 15.81C35.84 15.81 35.77 15.78 35.71 15.71L35.70 15.68L32.31 10.92L32.31 15.53C32.31 15.68 32.20 15.81 32.05 15.81L30.41 15.81C30.25 15.81 30.13 15.68 30.13 15.53L30.13 8.69L31.42 8.69L30.16 4.20L30.13 4.09L30.13 4.06C30.13 3.91 30.25 3.78 30.41 3.78L32.12 3.78C32.23 3.78 32.34 3.86 32.37 3.98L33.47 7.92L35.69 3.93C35.74 3.84 35.83 3.78 35.94 3.78L37.80 3.78C37.95 3.78 38.08 3.91 38.08 4.06C38.08 4.10 38.07 4.14 38.05 4.19L38.02 4.23L34.61 10.37L38.12 15.33L38.16 15.37C38.18 15.41 38.19 15.47 38.19 15.53ZM47.94 15.54C47.94 15.69 47.81 15.82 47.67 15.82L40.01 15.82C39.86 15.82 39.73 15.69 39.73 15.54L39.73 4.06C39.73 3.91 39.86 3.78 40.01 3.78L47.39 3.78C47.54 3.78 47.67 3.91 47.67 4.06L47.67 5.70C47.67 5.85 47.54 5.96 47.39 5.96L41.92 5.96L41.92 8.71L47.11 8.71C47.26 8.71 47.39 8.82 47.39 8.97L47.39 10.61C47.39 10.77 47.26 10.89 47.11 10.89L41.92 10.89L41.92 13.62L47.67 13.62C47.81 13.62 47.94 13.75 47.94 13.90ZM56.91 5.68C56.91 5.84 56.76 5.96 56.57 5.96L53.90 5.96L53.90 15.47C53.90 15.65 53.77 15.81 53.63 15.81L51.98 15.81C51.84 15.81 51.72 15.65 51.72 15.47L51.72 5.96L48.99 5.96C48.83 5.96 48.71 5.84 48.71 5.68L48.71 4.05C48.71 3.89 48.83 3.78 48.99 3.78L56.57 3.78C56.76 3.78 56.91 3.89 56.91 4.05ZM65.86 9.80C66.61 9.13 66.99 8.23 66.99 7.34C66.99 6.38 66.56 5.46 65.79 4.80C64.99 4.13 63.90 3.78 62.62 3.78L58.52 3.78C58.37 3.78 58.24 3.91 58.24 4.07L58.24 5.21L60.58 8.71L58.24 8.71L58.24 15.53C58.24 15.68 58.37 15.82 58.52 15.82L62.62 15.82C65.49 15.82 66.99 14.03 66.99 12.26C66.99 11.33 66.58 10.44 65.86 9.80ZM61.38 5.96L62.62 5.96C64.12 5.96 64.81 6.68 64.81 7.34C64.81 7.91 64.29 8.51 63.18 8.67ZM60.42 13.62L60.42 10.89L62.62 10.89C64.12 10.89 64.81 11.61 64.81 12.26C64.81 12.92 64.12 13.62 62.62 13.62ZM76.10 11.16C76.10 11.00 75.98 10.89 75.82 10.89L74.90 10.89L73.19 4.05L73.18 3.98C73.14 3.88 73.04 3.81 72.93 3.81L71.09 3.81C70.98 3.81 70.88 3.88 70.84 3.98L70.83 4.06L67.98 15.41C67.98 15.43 67.98 15.44 67.97 15.44L67.97 15.50C67.97 15.67 68.10 15.79 68.24 15.79L69.93 15.79C70.04 15.79 70.15 15.71 70.18 15.60C70.18 15.58 70.20 15.57 70.20 15.57L70.81 13.06L73.21 13.06L73.82 15.55L73.84 15.60C73.88 15.71 73.98 15.79 74.09 15.79L75.78 15.79C75.94 15.79 76.05 15.67 76.05 15.50L76.05 15.47L76.03 15.40L75.45 13.06L75.82 13.06C75.98 13.06 76.10 12.95 76.10 12.80ZM71.36 10.89L72.02 8.30L72.66 10.89ZM84.49 15.54C84.49 15.69 84.34 15.81 84.14 15.81L78.20 15.81C78.05 15.81 77.92 15.69 77.92 15.54L77.92 4.12C77.92 3.93 78.05 3.78 78.20 3.78L79.84 3.78C80.00 3.78 80.11 3.93 80.11 4.12L80.11 13.62L84.14 13.62C84.34 13.62 84.49 13.75 84.49 13.90ZM92.60 15.54C92.60 15.69 92.44 15.81 92.25 15.81L86.31 15.81C86.16 15.81 86.03 15.69 86.03 15.54L86.03 4.12C86.03 3.93 86.16 3.78 86.31 3.78L87.95 3.78C88.10 3.78 88.21 3.93 88.21 4.12L88.21 13.62L92.25 13.62C92.44 13.62 92.60 13.75 92.60 13.90ZM120.16 4.79C119.34 4.13 118.20 3.78 116.87 3.78L113.05 3.78C112.90 3.78 112.77 3.91 112.77 4.06L112.77 5.18L114.93 8.69L112.77 8.69L112.77 15.53C112.77 15.68 112.90 15.81 113.05 15.81L114.69 15.81C114.84 15.81 114.95 15.68 114.95 15.53L114.95 10.89L116.90 10.89C118.22 10.88 119.35 10.54 120.16 9.88C120.99 9.23 121.45 8.30 121.45 7.34C121.45 6.36 120.99 5.43 120.16 4.79ZM115.82 5.96L116.87 5.96C118.44 5.96 119.27 6.65 119.27 7.34C119.27 7.92 118.65 8.51 117.46 8.67ZM129.37 11.16C129.37 11.00 129.25 10.89 129.09 10.89L128.17 10.89L126.46 4.05L126.45 3.98C126.41 3.88 126.31 3.81 126.20 3.81L124.36 3.81C124.25 3.81 124.15 3.88 124.11 3.98L124.10 4.06L121.25 15.41C121.25 15.43 121.25 15.44 121.24 15.44L121.24 15.50C121.24 15.67 121.37 15.79 121.51 15.79L123.20 15.79C123.31 15.79 123.42 15.71 123.45 15.60C123.45 15.58 123.47 15.57 123.47 15.57L124.08 13.06L126.48 13.06L127.09 15.55L127.11 15.60C127.15 15.71 127.25 15.79 127.36 15.79L129.05 15.79C129.21 15.79 129.32 15.67 129.32 15.50L129.32 15.47L129.30 15.40L128.72 13.06L129.09 13.06C129.25 13.06 129.37 12.95 129.37 12.80ZM124.63 10.89L125.29 8.30L125.93 10.89ZM139.33 15.37L137.10 11.42L136.79 10.89L136.72 10.77C138.75 10.32 139.80 8.82 139.80 7.35C139.80 6.38 139.36 5.46 138.59 4.82C137.80 4.14 136.70 3.79 135.42 3.79L131.33 3.79C131.18 3.79 131.05 3.92 131.05 4.06L131.05 5.17L131.19 5.42L131.19 5.43L133.06 8.71L131.05 8.71L131.05 15.54C131.05 15.69 131.18 15.82 131.33 15.82L132.97 15.82C133.11 15.82 133.24 15.69 133.24 15.54L133.24 10.89L134.29 10.89L134.58 11.42L136.98 15.65L137.00 15.69C137.05 15.76 137.13 15.82 137.23 15.82L139.10 15.82C139.26 15.82 139.37 15.69 139.37 15.53C139.37 15.48 139.37 15.44 139.34 15.40ZM135.27 8.19L134.02 5.98L135.42 5.98C136.93 5.98 137.61 6.69 137.61 7.35C137.61 7.91 137.10 8.53 135.97 8.68C135.84 8.69 135.70 8.71 135.56 8.71ZM148.92 11.16C148.92 11.00 148.79 10.89 148.64 10.89L147.71 10.89L146.01 4.05L145.99 3.98C145.95 3.88 145.85 3.81 145.74 3.81L143.91 3.81C143.79 3.81 143.70 3.88 143.65 3.98L143.64 4.06L140.80 15.41C140.80 15.43 140.80 15.44 140.78 15.44L140.78 15.50C140.78 15.67 140.91 15.79 141.05 15.79L142.74 15.79C142.86 15.79 142.97 15.71 143.00 15.60C143.00 15.58 143.01 15.57 143.01 15.57L143.63 13.06L146.02 13.06L146.64 15.55L146.65 15.60C146.69 15.71 146.79 15.79 146.90 15.79L148.60 15.79C148.75 15.79 148.86 15.67 148.86 15.50L148.86 15.47L148.85 15.40L148.26 13.06L148.64 13.06C148.79 13.06 148.92 12.95 148.92 12.80ZM144.17 10.89L144.83 8.30L145.47 10.89ZM153.87 15.81C155.23 15.82 156.59 15.37 157.71 14.45C160.26 12.35 160.64 8.55 158.52 5.99C157.35 4.55 155.61 3.79 153.87 3.79L150.88 3.79C150.72 3.79 150.60 3.92 150.60 4.06L150.60 15.47C150.60 15.67 150.72 15.81 150.88 15.81ZM156.84 7.38C158.19 9.00 157.95 11.42 156.31 12.75C155.61 13.34 154.74 13.64 153.87 13.62L152.78 13.62L152.78 5.98L153.87 5.98C154.98 5.98 156.09 6.45 156.84 7.38ZM164.84 5.95L164.84 13.61L166.67 13.61C166.87 13.61 167.02 13.73 167.02 13.89L167.02 15.53C167.02 15.68 166.87 15.81 166.67 15.81L160.73 15.81C160.58 15.81 160.45 15.68 160.45 15.53L160.45 13.89C160.45 13.73 160.58 13.61 160.73 13.61L162.64 13.61L162.64 5.95L160.73 5.95C160.58 5.95 160.45 5.84 160.45 5.68L160.45 4.05C160.45 3.89 160.58 3.77 160.73 3.77L166.67 3.77C166.87 3.77 167.02 3.89 167.02 4.05L167.02 5.68C167.02 5.84 166.87 5.95 166.67 5.95ZM176.62 12.28C176.62 12.38 176.61 13.22 176.08 14.07C175.59 14.88 174.58 15.83 172.52 15.83C170.90 15.83 169.62 15.15 168.94 13.93C168.62 13.34 168.49 12.77 168.45 12.40C168.45 12.38 168.43 12.35 168.43 12.32C168.43 12.18 168.55 12.05 168.69 12.04L170.41 12.04C170.52 12.05 170.60 12.12 170.63 12.24L170.63 12.25C170.63 12.26 170.65 12.28 170.65 12.29C170.67 12.46 170.74 12.70 170.88 12.91C171.18 13.40 171.72 13.65 172.52 13.65C173.38 13.65 173.92 13.41 174.22 12.94C174.41 12.61 174.44 12.26 174.44 12.26C174.44 11.87 174.34 11.41 173.61 11.12C173.08 10.89 172.52 10.88 172.52 10.88C172.42 10.88 171.53 10.86 170.60 10.50C169.19 9.93 168.42 8.81 168.42 7.34C168.42 7.20 168.45 5.89 169.47 4.87C170.20 4.13 171.23 3.75 172.52 3.75C173.35 3.75 174.54 3.93 175.45 4.86C176.33 5.75 176.55 6.89 176.61 7.45L176.61 7.48C176.61 7.64 176.50 7.77 176.34 7.77L174.65 7.77C174.54 7.76 174.44 7.66 174.41 7.55L174.41 7.50C174.37 7.31 174.30 7.03 174.16 6.75C173.96 6.40 173.59 5.94 172.52 5.94C171.84 5.94 171.33 6.09 171.01 6.41C170.63 6.79 170.60 7.34 170.60 7.34C170.60 7.73 170.70 8.18 171.43 8.47C171.96 8.68 172.52 8.69 172.52 8.69C172.62 8.69 173.52 8.71 174.44 9.09C175.85 9.67 176.62 10.81 176.62 12.28ZM186.23 15.54C186.23 15.69 186.10 15.82 185.96 15.82L178.30 15.82C178.15 15.82 178.02 15.69 178.02 15.54L178.02 4.06C178.02 3.91 178.15 3.78 178.30 3.78L185.68 3.78C185.84 3.78 185.96 3.91 185.96 4.06L185.96 5.70C185.96 5.85 185.84 5.96 185.68 5.96L180.21 5.96L180.21 8.71L185.40 8.71C185.56 8.71 185.68 8.82 185.68 8.97L185.68 10.61C185.68 10.77 185.56 10.89 185.40 10.89L180.21 10.89L180.21 13.62L185.96 13.62C186.10 13.62 186.23 13.75 186.23 13.90Z"></path></g><!----><g data-v-423bf9ae="" id="e13f3c22-1fcd-446a-b213-1af45542c4f7" transform="matrix(1.0895601186238482,0,0,1.0895601186238482,438.21156043616224,68.77917310035643)" stroke="none" fill="white"><path d="M77.5 19.2C71.2 13.4 63.2 10 55.2 9c-.2 8.7 2.8 17.3 8.6 23.9l13.7-13.7zM91 44.7c-1-8-4.4-15.9-10.2-22.3L67.1 36.1c6.6 5.7 15.1 8.8 23.9 8.6zM60.6 36.2c-6.7-7.6-10.3-17.4-10-27.5h-.7c-10 0-19.8 3.5-27.6 10.5L50 46.8l10.6-10.6zM36.2 60.6L46.8 50 19.2 22.4C12 30.4 8.6 40.6 8.7 50.7c10.2-.4 19.9 3.3 27.5 9.9zM90 49.3c-9.7 0-18.9-3.5-26.2-10L53.2 50l27.6 27.6c7.2-8 10.8-18.2 10.5-28.3H90zM39.4 63.8c6.7 7.6 10.3 17.4 10 27.5 10.1.1 20.3-3.3 28.3-10.5L50 53.2 39.4 63.8zM9 55.2c1 8.2 4.4 16 10.2 22.4l13.7-13.8C26.3 58 17.8 55 9 55.2zM22.4 80.8C28.8 86.6 36.8 90 44.8 91c.2-8.8-2.8-17.3-8.7-23.9L22.4 80.8z"></path></g><!----></svg>