<svg data-v-423bf9ae="" xmlns="http://www.w3.org/2000/svg" viewBox="0 0 60.01259094538123 60" class="icon"><!----><!----><!----><!----><g data-v-423bf9ae="" id="d992a554-9cb9-444f-9b7b-20dd5fb0ff28" transform="matrix(0.7263734124158987,0,0,0.7263734124158987,-6.317891314246317,-6.319449242197251)" stroke="none" fill="black"><path d="M77.5 19.2C71.2 13.4 63.2 10 55.2 9c-.2 8.7 2.8 17.3 8.6 23.9l13.7-13.7zM91 44.7c-1-8-4.4-15.9-10.2-22.3L67.1 36.1c6.6 5.7 15.1 8.8 23.9 8.6zM60.6 36.2c-6.7-7.6-10.3-17.4-10-27.5h-.7c-10 0-19.8 3.5-27.6 10.5L50 46.8l10.6-10.6zM36.2 60.6L46.8 50 19.2 22.4C12 30.4 8.6 40.6 8.7 50.7c10.2-.4 19.9 3.3 27.5 9.9zM90 49.3c-9.7 0-18.9-3.5-26.2-10L53.2 50l27.6 27.6c7.2-8 10.8-18.2 10.5-28.3H90zM39.4 63.8c6.7 7.6 10.3 17.4 10 27.5 10.1.1 20.3-3.3 28.3-10.5L50 53.2 39.4 63.8zM9 55.2c1 8.2 4.4 16 10.2 22.4l13.7-13.8C26.3 58 17.8 55 9 55.2zM22.4 80.8C28.8 86.6 36.8 90 44.8 91c.2-8.8-2.8-17.3-8.7-23.9L22.4 80.8z"></path></g><!----></svg>